<svg xmlns="http://www.w3.org/2000/svg" viewBox="0 0 600 407"><title>Boulderlounge Logo Web SVG</title><g id="Ebene_12" data-name="Ebene 12"><path d="M232.63,2.17,135,137.79,177.85,200l3.19,4.63,3.28,4.76a84.77,84.77,0,0,1,8.13-19.81L210,175.73c0-2.82-2.47-8.16-4.82-12.68-2.49-10.4-1.74-32-1.74-32l-8,20.44-9.57-6.65-2.59-33.67c2-3.06,10.7-7.4,19.8-10.63-1.15,6.64-2.62,16.7-2.06,22.25,0,0,10.75-14.09,12.07-25.33h0l.2-3.18a43.14,43.14,0,0,1,7.38-21.75l68.81-20.44-45.05-3.72c19.73-7.63,40.5-10.31,58-7.58L303.73,55,272.67,76.64c-1.35,1.44,17.49-4,19.43-3.6L316,68.56c.79,13.4,1.6,25.83,1.86,26,0,0,18.8-19.85,44.08-11.85L388.94,93.3l-9.27-12.38,33.73,1.79L431.24,105l1.56-5.25,1.57-5.24,10.41-34.92Z" fill="#339ba0"/><path d="M359.39,91.81,326.88,107.2c-1.21,2.82,0,10.83,0,10.83,21.8,17.5,11.88,34.23,11.88,34.23l4.35.37,12.56-10.23c7.85-.78,30.71,16.27,30.71,16.27,20.41,17.33,10.28,27.65,10.28,27.65,3,2.84,5.06,8.32,6.34,13.22l13.51-45.3-8.19-24.34C363.32,110.45,359.39,91.81,359.39,91.81Z" fill="#339ba0"/><path d="M202.65,214.75l-2.81-1.22,4.6-19.55c-3,.85-14.43,11.06-19.75,15.94l14,20.28,4.3-5Z" fill="#339ba0"/><path d="M389.63,206.27l-14.43-7.69c-6.72-8.12-30.79-32.33-30.79-32.33l8,27.32c-8.84-3.31-18.85,2.76-18.85,2.76l-3.45,1.9c-2,.18-5.73.56-9.8,1L303,192.84,298.22,206c-3.3-5-10.19-14.88-10.19-14.88a90.57,90.57,0,0,0-10.84-3.25c-14.38-16.6-26.82-10.51-26.82-10.51l-8.85,4.56-9.72-2.37c-9.38.83-13.72,14.72-13.72,14.72l-3.48.56-5,21.62-2,9.39,7.76-6.26,2.29-4.86c4.92-10.64,9.95-13.95,9.95-13.95,13.57-9.37,20.05-6.41,20.05-6.41L263.53,196l15.9,14.1c7.16,5.49,17.24,6.93,17.24,6.93l19.52.38c11.5,2.46,25.52,8.85,31.47,11.72L340,232.28c-5.8,5.1-15.54,13.41-15.54,13.41l-24.12-15.32L283,250.11l-17.32,6.51H386l6.67-22.37,3.93-13.18a44.83,44.83,0,0,0-4.34-3.26Z" fill="#339ba0"/><path d="M278.7,218.11l-13.79-9.4c-4.4-4-14.69-5.28-14.69-5.28-9.61,1.36-19.89,6.32-19.89,6.32C222,215.24,221,220.8,221,220.8V223c3.57-1.15,22.24-6.11,22.24-6.11C250.68,217.16,278.7,218.11,278.7,218.11Z" fill="#339ba0"/><path d="M313.43,119.35l-3.35-13s-23.67,1.3-26,2.37c0,0-19.77,3.91-32.82,15.39,0,0,3.33,3.21,3,9.7,0,0,3.09,4.6,2.63,14.63,0,0,1.24,5.54,9.11,5,0,0,10.28,6.22,3.18,11.29l-3.53,3.52S287.5,177.48,293,178c0,0,1.26-5.32-8.4-17.81l-21-23.29,11.69,4.27s12.12,4.47,27.16-4.86L297.38,134l12.83-2.28-3.7-8.27-28,.08S288.54,116.51,313.43,119.35Z" fill="#339ba0"/><path d="M243.31,135.5l-1-4.17c-.45-1.77-1.74-5.49-1.74-5.49l-13.17-5.52s-11.61-4.07-19.32-2L204.33,130c7.75-5.37,17.8.3,17.8.3l-14.44,2.56-.9,6,7.38,1.71-4.93,2.86c14.29,5.89,23.13.77,25.91-1.32-1.33,6.18-2,13.19-2,13.19l0,.14,2.52-.39C237.37,146.68,243.31,135.5,243.31,135.5Z" fill="#339ba0"/><path d="M246.71,159.06s-7.53-1.1-12.37.52a5.23,5.23,0,0,0-1.07,2.3l-.06.15.73,3.26s6.88.73,12.09,4.52c0,0,10-3,14.5-2.44a14.34,14.34,0,0,0,3.86-3.37l-1.82-1.32A41.67,41.67,0,0,0,246.71,159.06Z" fill="#339ba0"/><path d="M30.12,328.32c5.14,1,7.61,6.37,7.61,9.89,0,7.79-6.37,12.86-16.2,12.86H1V307.79H19.8c9.33,0,16.07,4.7,16.07,12.49C35.87,323.06,34.58,326.46,30.12,328.32Zm-12.3-2.91c3.89,0,5.69-1.67,5.69-3.58,0-2.35-1.86-3.9-5.07-3.9H14v7.48ZM14,333.08v7.54h6.8c3.21,0,4.45-1.85,4.45-3.65s-1.73-3.89-5.57-3.89Z" fill="#42363d"/><path d="M44.59,329.43c0-12.06,8.78-22.32,23.37-22.32s23.37,10.26,23.37,22.32S82.55,351.75,68,351.75,44.59,341.49,44.59,329.43Zm33.76,0c0-6.06-3.77-11.19-10.39-11.19s-10.39,5.13-10.39,11.19S61.35,340.62,68,340.62,78.35,335.49,78.35,329.43Z" fill="#42363d"/><path d="M112.91,307.79v26.53c0,4.08,2.54,6.3,5.63,6.3s5.75-2.22,5.75-6.3V307.79h13v26.53c0,11.31-8.59,17.43-18.73,17.43s-18.61-6.12-18.61-17.43V307.79Z" fill="#42363d"/><path d="M161,339.94h19.42v11.13H148V307.79h13Z" fill="#42363d"/><path d="M189,351.07V307.79h20.34a21.56,21.56,0,0,1,22,21.64c0,12-9.4,21.64-22,21.64Zm13-32.15v21h5.57c6.68,0,10.82-4.14,10.82-10.51s-4.14-10.57-10.82-10.51Z" fill="#42363d"/><path d="M239.22,351.07V307.79H270.7v11.13H252.21v5.63h16.14v9.89H252.21v5.5H270.7v11.13Z" fill="#42363d"/><path d="M293.57,336.48v14.59h-13V307.79h21c10.08,0,15.46,6.8,15.46,15.09,0,6.37-3.28,11-9,12.8.56,4.08,2.54,6,5.07,6a8.53,8.53,0,0,0,4.7-1.48l4,8.22a19.52,19.52,0,0,1-11.32,3.34c-11.25,0-13.35-10.82-13.85-15.27Zm0-9h6.68a4.09,4.09,0,0,0,3.83-4.2c0-2.29-1.6-4.39-3.83-4.39h-6.68Z" fill="#42363d"/><path d="M342.91,339.94h19.41v11.13h-32.4V307.79h13Z" fill="#42363d"/><path d="M367.21,329.43c0-12.06,8.78-22.32,23.37-22.32S414,317.37,414,329.43s-8.78,22.32-23.37,22.32S367.21,341.49,367.21,329.43Zm33.76,0c0-6.06-3.77-11.19-10.39-11.19s-10.39,5.13-10.39,11.19,3.77,11.19,10.39,11.19S401,335.49,401,329.43Z" fill="#42363d"/><path d="M435.22,307.79v26.53c0,4.08,2.53,6.3,5.63,6.3s5.75-2.22,5.75-6.3V307.79h13v26.53c0,11.31-8.59,17.43-18.73,17.43s-18.62-6.12-18.62-17.43V307.79Z" fill="#42363d"/><path d="M483.32,330.42v20.65h-13V307.79h10.15l14.4,20.28V307.79h13v43.28H497.79Z" fill="#42363d"/><path d="M548.61,320.9a12.19,12.19,0,0,0-8.22-2.66c-6.74,0-11.13,4.95-11.13,11.19s4.39,11.19,11.13,11.19a19.1,19.1,0,0,0,5.19-.68v-4.76h-9v-9.34H558v18.93a26,26,0,0,1-17.56,7c-14.59,0-24.12-10.26-24.12-22.32s9.53-22.32,24.12-22.32a23.56,23.56,0,0,1,15.46,5.38Z" fill="#42363d"/><path d="M567.53,351.07V307.79H599v11.13H580.51v5.63h16.14v9.89H580.51v5.5H599v11.13Z" fill="#42363d"/><path d="M223.46,381.6a11.6,11.6,0,0,1,7.43,2.42l-1.25,2.41a11.14,11.14,0,0,0-6.18-1.93c-5.63,0-8.88,4-8.88,8.72s3.25,8.71,8.88,8.71a11.06,11.06,0,0,0,6.18-1.93l1.25,2.42a11.65,11.65,0,0,1-7.43,2.41c-7.66,0-12.16-5.34-12.16-11.61S215.8,381.6,223.46,381.6Z" fill="#42363d"/><path d="M239.75,395.05v9.42h-3.22V382h3.22v10.48h10.52V382h3.21v22.51h-3.21v-9.42Z" fill="#42363d"/><path d="M275.65,404.47H261.34V382h14.31v2.63h-11.1v7.53h9.69v2.64h-9.69v7.08h11.1Z" fill="#42363d"/><path d="M285.54,386.72,284,404.47h-3.25L282.87,382h3.61l7.49,18,7.5-18h3.6l2.12,22.51h-3.25l-1.54-17.75-7.24,17.47h-2.38Z" fill="#42363d"/><path d="M317.33,387.81v16.66h-3.22V382h2.38l12.33,16.6V382h3.24v22.51h-2.38Z" fill="#42363d"/><path d="M343.12,404.47h-3.21V382h3.21Z" fill="#42363d"/><path d="M366.39,382v2.63H358.9v19.88h-3.22V384.59h-7.49V382Z" fill="#42363d"/><path d="M388.7,404.47H370V402l13.7-17.44H370.85V382H388v2.44l-13.83,17.44H388.7Z" fill="#42363d"/></g></svg>	
