<svg class="logo" xmlns="http://www.w3.org/2000/svg" viewBox="0 0 283.5 66.6"><path fill="#5a5a5a" d="M91.1 56.2L89.8 52l-1.3 4.3h2.6zm.5 1.8H88l-.6 1.8H85l3.2-9.1c.2-.7.8-1.1 1.7-1.1.9 0 1.4.4 1.6 1.1l3.1 9.1h-2.4l-.6-1.8zm11.4-3.6l.4-.5c.2-.3.5-.7.5-1.2 0-.8-.4-1.3-1.3-1.3h-2v3h2.4zm-4.8-3.5c0-.7.5-1.2 1.3-1.2h3.5c2 0 3.2 1 3.2 2.9 0 .8-.4 1.6-.9 2.1l-.6.7 1.9 4.3h-2.5l-1.5-3.6h-2v3.6h-2.4v-8.8zm11.9 7.7c0-.4.1-.7.4-1l4.7-6.2h-4.8v-1.8h6.6c.8 0 1.1.5 1.1 1.1 0 .4-.1.7-.4 1L113 58h5v1.8h-6.8c-.8-.1-1.1-.5-1.1-1.2m17.3 0l-3.2-5.7v6.8h-2.1V51c0-.9.6-1.5 1.7-1.5 1 0 1.4.5 1.7 1.3l3.2 5.7v-6.8h2.1v8.7c0 1-.6 1.5-1.7 1.5-1-.1-1.3-.6-1.7-1.3m7.8-.1v-7.6c0-.8.5-1.2 1.3-1.2h5.8v1.8h-4.8v2.3h4.2v1.7h-4.2V58h4.8v1.8h-5.9c-.7-.1-1.2-.5-1.2-1.3m11.3-8.8h2.4v10h-2.4zm10.8 9.3l-2-6.3v7.1h-2.1v-8.7c0-1 .7-1.5 1.8-1.5s1.7.5 1.9 1.3l1.7 5.5 1.8-5.5c.2-.8.8-1.3 1.9-1.3 1 0 1.7.5 1.7 1.4v8.7h-2.1v-7.1l-2 6.3c-.2.6-.6.9-1.3.9-.7 0-1.2-.3-1.3-.8m11-9.3h2.4v10h-2.4zm9.2 1.8h-2.8v-1.8h8.1v1.8h-2.9v8.2h-2.4zm10.9 0h-2.8v-1.8h8.1v1.8h-2.9v8.2h-2.4zm8 7v-7.6c0-.8.5-1.2 1.3-1.2h5.8v1.8h-4.8v2.3h4.2v1.7h-4.2V58h4.8v1.8h-5.9c-.7-.1-1.2-.5-1.2-1.3m11.3 0v-8.8h2.4v8.1h4.4v1.9H209c-.8 0-1.3-.4-1.3-1.2"></path><path fill="#006eb4" d="M85 35.6V13.4c0-2.4 1.5-3.9 4.2-3.9H97c8.8 0 14.5 5.4 14.5 14.9S105.7 39.5 97 39.5h-7.7c-2.7 0-4.3-1.5-4.3-3.9m11.8-2.2c4.2 0 6.7-3 6.7-8.8 0-5.7-2.5-9-6.9-9h-3.4v17.8h3.6zm18.8-11.5c0-2.1 1-3.2 3-3.7 2.9-.8 5.6-1.1 10.2-1.1v5.3c-2.9 0-4.9.2-6.7.7v16.4h-6.6V21.9zm11.2 14.5c0-2.1 1.4-3.4 3.7-3.4 2.3 0 3.7 1.4 3.7 3.4 0 2.2-1.4 3.5-3.7 3.5-2.4 0-3.7-1.4-3.7-3.5m16.7-23c0-2.4 1.5-3.9 4.2-3.9h9.2c6.2 0 10.1 3.8 10.1 9.8 0 6.1-4.1 9.9-10.6 9.9h-5v10.3h-8V13.4zm12.3 10c2.4 0 3.9-1.5 3.9-4.1 0-2.5-1.5-4.1-3.8-4.1h-4.4v8.2h4.3zm16.5-1.2h-3.2v-4.9h3.2v-1.2c0-4.9 3-7.5 8.1-7.5 1.8 0 3.4.3 5.3 1l-.7 4.8c-1.3-.4-2.4-.7-3.4-.7-2 0-2.8.8-2.8 2.8v.7h5.4v4.9h-5.4v17.3h-6.6V22.2zm16-12.8l6.7-1.2v31.3h-6.7V9.4zM218.2 33l.8 4.9-2.1.7c-2.7.8-4.8 1.3-7.2 1.3-6.8 0-11.3-4-11.3-11.5 0-7.9 4.9-11.6 10.6-11.6 6.3 0 10.3 3.6 10.3 11 0 1.8-.8 2.6-2.6 2.6h-11.9c.4 2.7 1.9 4.1 5.3 4.1 1.9 0 3.8-.3 6-1l2.1-.5zm-13.4-6.9h8.1c0-2.4-1.2-4.5-4-4.5-2.7 0-3.8 1.6-4.1 4.5m17.4 14.2c0-1.9.7-3.2 1.5-4.2l1.8-2.3c.5-.7.7-1.2.7-1.9 0-.8-.3-1.4-1.2-2-1.2-1-2.9-2.4-2.9-5.4 0-4.9 4-7.1 10-7.1h2.2c1.8 0 3.2-.3 3.9-.5l5.4-1.6 1.1 4.8-3.6 1s1.3 1.1 1.3 3.4c0 4.6-3.7 6.8-9.8 6.8-1 0-1.6-.1-1.6-.1.1.1.3.6.3 1.1 0 .7-.4 1.2-.6 1.5h5.8c5.3 0 7.8 2.2 7.8 5.8 0 4.5-3.8 7.1-11.5 7.1-6.2 0-10.6-1.8-10.6-6.4m16.2-.4c0-1-.8-1.6-2.4-1.6h-7.2c-.3.3-.6 1-.6 1.9 0 1.8 1.7 2.3 4.8 2.3 3.6-.1 5.4-.9 5.4-2.6m-2.2-15.4c0-1.9-1.5-2.8-3.9-2.8s-3.9.8-3.9 2.8c0 2.1 1.5 2.9 3.9 2.9 2.2 0 3.9-.8 3.9-2.9m29.2 8.5l.8 4.9-2.1.7c-2.7.8-4.8 1.3-7.2 1.3-6.8 0-11.3-4-11.3-11.5 0-7.9 4.9-11.6 10.6-11.6 6.3 0 10.3 3.6 10.3 11 0 1.8-.8 2.6-2.6 2.6H252c.4 2.7 1.9 4.1 5.3 4.1 1.9 0 3.8-.3 6-1l2.1-.5zM252 26.1h8.1c0-2.4-1.2-4.5-4-4.5-2.7 0-3.8 1.6-4.1 4.5m18.2-4.2c0-2.1 1-3.2 3-3.7 2.8-.8 5.6-1.1 10.2-1.1v5.3c-2.8 0-4.9.2-6.7.7v16.4h-6.6V21.9zM69.8 33.3c0 20.6-12 33.4-34.9 33.4-1.5 0-3-.1-4.4-.2 2.8-1.2 6.8-5.2 6.8-16.6v-1.2c12.4-1.6 22.2-10.4 22.2-22.9 0-11-7.6-17.7-18.8-17.7-14 0-23.5 10-23.5 24.7V42c-4.1-.3-7-1.6-9.5-4.6-.6.9-1.1 2-1.1 3.3 0 4.3 3.4 7.2 10.6 7.7v.2c0 5.3-.9 9.1-4.3 12.3C4.4 55.3 0 45.7 0 33.3 0 12.7 11.9 0 34.9 0c22.9 0 34.9 12.7 34.9 33.3z"></path><path d="M59.5 25.7c0 12.5-9.8 21.4-22.2 22.9v1.2c0 11.5-4 15.4-6.8 16.6-2.3-.2-4.4-.5-6.4-.9 4.7-3.7 6-8.8 6-16V34.3c0-10.4 3.5-15.1 8.9-15.1 1.5 0 2.8.6 3.8 1.3-4.3 3.5-5.4 7.8-5.4 14.4v7.5C45.9 41.1 52.1 35 52.1 26c0-7.5-4.5-11.7-11.8-11.7-9.9 0-16 8-16 18.5v16.3c0 9.6-3.4 12.9-6.8 14.3h-.2c-.1 0-.2-.1-.3-.1-.2-.1-.3-.1-.5-.2-.1 0-.2-.1-.3-.1-.2-.1-.3-.1-.5-.2-.1-.1-.2-.1-.3-.2-.1-.1-.3-.1-.4-.2l-.6-.3c-.3-.1-.5-.3-.8-.5-.2-.1-.5-.3-.7-.4-.1 0-.1-.1-.2-.1 3.4-3.2 4.3-6.9 4.3-12.3v-.2C9.9 47.9 6.5 45 6.5 40.8c0-1.3.6-2.4 1.1-3.3 2.5 3 5.4 4.3 9.5 4.6v-9.4C17.2 18 26.7 8 40.7 8c11.1 0 18.8 6.7 18.8 17.7z" fill="#fff"></path><path fill="#006eb4" d="M52.1 26c0 9-6.2 15.1-14.8 16.3v-7.5c0-6.6 1.2-10.9 5.4-14.4-1-.7-2.3-1.3-3.8-1.3-5.4 0-8.9 4.7-8.9 15.1v15.2c0 7.2-1.4 12.3-6 16-2.3-.5-4.5-1.2-6.5-2.1 3.5-1.4 6.8-4.8 6.8-14.3V32.8c0-10.5 6.1-18.5 16-18.5 7.3.1 11.8 4.2 11.8 11.7z"></path></svg>
