<svg xmlns="http://www.w3.org/2000/svg" xmlns:xlink="http://www.w3.org/1999/xlink" width="155.9" height="94.8" viewBox="0 0 155.9 94.8"><defs><style>.a{fill:#080808;}.b{clip-path:url(#a);}.c{clip-path:url(#b);}</style><clipPath id="a"><rect width="155.9" height="94.8"/></clipPath><clipPath id="b"><rect class="a" width="155.9" height="94.8"/></clipPath></defs><g class="b"><path class="a" d="M52.9,76.5H46.3L40.8,88.2,30.5,81.5l.4-1h9.2L42,76.4H29.2a1.975,1.975,0,0,0-1.8,1.2l-1.3,2.7a3.484,3.484,0,0,0,1.2,4.3h0l8.4,5.5-.2.5H23.7l-1.9,4.1H42.7L49.6,80l5,10.7H48.7l1.9,4.1H61.5Z"/></g><g class="c"><path class="a" d="M133.3,76.6h-6.6l-6.8,14.6-1.1-7.6h-7.3L108,91.2V76.6h-4.8V94.8h8.1l3.2-7.1,1,7.1h7.6L130,80.1l5,10.6h-5.9l1.9,4.1h10.8Z"/></g><g class="b"><path class="a" d="M98.7,80.6l1.9-4H81.2V90.7H68.8V76.6H64V94.8H80.3l1.9-4.1h3.1l-1.9,4.1H98.7l1.9-4.1H86V87.4h9.6l1.6-3.5H86V80.6Z"/></g><g class="b"><path class="a" d="M92.5,57.3l49.2-17.9L155.9,7.2,96.1,51Zm-1.7,2.9-5.7,9.9L74.5,51.7,22,37.6,0,0,77.2,44Z"/></g></svg>