<svg xmlns="http://www.w3.org/2000/svg" width="900" height="290" viewBox="0 0 900 290"><defs><linearGradient id="a" x1="10.02" y1="78.52" x2="240.31" y2="211.48" gradientUnits="userSpaceOnUse"><stop offset="0" stop-color="#0af"/><stop offset="0.19" stop-color="#267fe7"/><stop offset="0.46" stop-color="#5649c9"/><stop offset="0.7" stop-color="#7921b3"/><stop offset="0.89" stop-color="#8e09a5"/><stop offset="1" stop-color="#9600a0"/></linearGradient></defs><path d="M235.28 75.64L130.22 15l-5-2.91-5.11 2.91L15.05 75.64 10 78.56v132.88l5.05 2.92L120.11 275l5.06 2.91 5-2.91 105.06-60.61 5.06-2.92V78.56zm-52.62 100.5L229.71 149v54.28zM228 206.3l-47.08 27.16v-54.32zm-47.08-33.17v-56.27L229.68 145zm1.72-59.29l47.08-27.15V141zm-1.72-3v-54.3l47 27.14zM121.7 82.7l-48.78 28.15V54.56zM76.36 52.54l48.81-28.16L174 52.54 125.18 80.7zm45.33 154.75l-48.77 28.14v-56.28zM72.92 146v-29.16l77.45 44.68-25.17 14.53zm52.26 63.28L174 237.46l-48.81 28.16-48.83-28.16zm3.47-2l48.78-28.14v56.28zM99.91 128.4l25.26-14.58 52.26 30v29.29zm28.74-45.7l48.78-28.14v56.28zm-59.21 96.43v54.34l-47.1-27.17zm-48.81 24.15V149l47.06 27.15zm0-58.28l48.77-28.14v56.27zm0-4V86.67l47.1 27.17zm1.75-57.34l47.06-27.13v54.29z" fill="url(#a)"/><path class="b" d="M323.56 228.1v37.37h-2.39v-4.83a9.81 9.81 0 01-4 3.88 11.92 11.92 0 01-5.81 1.45 11.29 11.29 0 01-8.52-3.61 13.32 13.32 0 010-17.82 11.22 11.22 0 018.54-3.63 12 12 0 015.71 1.37 9.72 9.72 0 014 3.76V228.1zm-5.25 32.9c1.84-1.73 2.76-4.25 2.76-7.58s-.92-5.89-2.76-7.62a9.45 9.45 0 00-6.71-2.59 9 9 0 00-6.9 2.91 11.12 11.12 0 000 14.55 9 9 0 006.9 2.92 9.5 9.5 0 006.71-2.59z"/><path class="b" d="M355.84 254h-20.08a9.92 9.92 0 003 6.93 9.5 9.5 0 006.89 2.69 10.18 10.18 0 008-3.79l1.59 1.64a12.17 12.17 0 01-9.66 4.49 12.33 12.33 0 01-12.46-12.51 12.31 12.31 0 013.54-8.89 11.52 11.52 0 018.62-3.66 10.67 10.67 0 017.64 3 10.21 10.21 0 013.12 7.75 10.78 10.78 0 01-.2 2.35zM339 245.62a9.9 9.9 0 00-3.09 6.15h17.59a7.81 7.81 0 00-2.29-6.23 8.32 8.32 0 00-6-2.34 8.82 8.82 0 00-6.21 2.42z"/><path class="b" d="M384.64 241.4l-11 24.57h-1l-11.08-24.57h2.7l8.87 20.28 8.81-20.28z"/><path class="b" d="M412.88 254H392.8a9.92 9.92 0 003 6.93 9.5 9.5 0 006.89 2.69 10.18 10.18 0 008-3.79l1.59 1.64a12.17 12.17 0 01-9.66 4.49 12.33 12.33 0 01-12.46-12.51 12.31 12.31 0 013.54-8.89 11.52 11.52 0 018.62-3.66 10.71 10.71 0 017.65 3 10.24 10.24 0 013.11 7.75 10.78 10.78 0 01-.2 2.35zM396 245.62a9.9 9.9 0 00-3.09 6.15h17.59a7.81 7.81 0 00-2.29-6.23 8.32 8.32 0 00-6-2.34 8.82 8.82 0 00-6.21 2.42z"/><path class="b" d="M425.13 265.47h-2.49V228.1h2.49z"/><path class="b" d="M456 244.52a12.55 12.55 0 01-8.9 21.48 11.9 11.9 0 01-8.79-3.64 12.76 12.76 0 010-17.81 12.6 12.6 0 0117.66 0zm-15.87 1.67a10.78 10.78 0 000 14.52 9.32 9.32 0 007 2.92 9.46 9.46 0 007-2.94 10 10 0 002.87-7.23 10.07 10.07 0 00-2.84-7.27 9.9 9.9 0 00-14.08 0z"/><path class="b" d="M489.89 244.52a13.25 13.25 0 010 17.81 11.23 11.23 0 01-8.52 3.64 12.21 12.21 0 01-5.68-1.37 9.81 9.81 0 01-4-3.76v13.6h-2.49v-33h2.4v4.84a9.71 9.71 0 014-3.89 12 12 0 015.8-1.44 11.27 11.27 0 018.49 3.57zM488 260.71a11.09 11.09 0 000-14.55 9 9 0 00-6.9-2.91 9.45 9.45 0 00-6.7 2.59c-1.84 1.73-2.77 4.25-2.77 7.57s.93 5.9 2.77 7.63a9.49 9.49 0 006.7 2.59 9 9 0 006.9-2.92z"/><path class="b" d="M534.9 243.47a9.91 9.91 0 012.27 6.8v15.2h-2.54v-15a7.81 7.81 0 00-1.7-5.23 5.81 5.81 0 00-4.68-2 6.73 6.73 0 00-5 2 6.63 6.63 0 00-2 4.83v15.4h-2.49v-15a7.72 7.72 0 00-1.72-5.23 5.86 5.86 0 00-4.7-2 6.65 6.65 0 00-5 2 7.23 7.23 0 00-1.94 5.18v15h-2.49V241.4h2.39v3.14a8.48 8.48 0 017.42-3.63q5.53 0 7.58 4.68a9.29 9.29 0 018.32-4.68 8 8 0 016.28 2.56z"/><path class="b" d="M569.05 254H549a9.92 9.92 0 003 6.93 9.5 9.5 0 006.89 2.69 10.18 10.18 0 008-3.79l1.59 1.64a12.17 12.17 0 01-9.66 4.49 12.33 12.33 0 01-12.46-12.51 12.31 12.31 0 013.54-8.89 11.52 11.52 0 018.62-3.66 10.67 10.67 0 017.64 3 10.21 10.21 0 013.12 7.75 10.78 10.78 0 01-.23 2.35zm-16.89-8.39a9.9 9.9 0 00-3.09 6.15h17.59a7.79 7.79 0 00-2.3-6.23 8.28 8.28 0 00-6-2.34 8.82 8.82 0 00-6.2 2.43z"/><path class="b" d="M595.35 243.5a9.69 9.69 0 012.34 6.77v15.2h-2.49v-15.05a7.41 7.41 0 00-1.82-5.18 6.31 6.31 0 00-4.91-2 6.94 6.94 0 00-7.17 7.17v15.05h-2.49V241.4h2.39v3.24a8.81 8.81 0 017.67-3.73 8.28 8.28 0 016.48 2.59z"/><path class="b" d="M620.8 263.28v2.19a14.69 14.69 0 01-3.74.5 7.84 7.84 0 01-5.37-1.75q-2-1.74-2-5.48v-15h-4.18v-2.3h4.18v-6.82h2.54v6.82H620v2.3h-7.78v14.95c0 3.35 1.75 5 5.23 5a16.82 16.82 0 003.35-.41z"/><path class="b" d="M664 259.09l5.38 6.38h-3.18l-3.7-4.47q-4.44 5-9.77 5a10.62 10.62 0 01-6.87-2.29 7.34 7.34 0 01-2.84-6 8.15 8.15 0 012-5.48 31 31 0 015.86-5Q647 242.51 647 239a7 7 0 011.82-4.88 6.43 6.43 0 015-2 6.7 6.7 0 015 1.87 6.27 6.27 0 011.87 4.61 7.46 7.46 0 01-1.62 4.6 23.57 23.57 0 01-4.66 4.41l8 9.57q.45-.6 5-7.52l2.1 1.34q-4.23 6.45-5.51 8.09zm-3.13 0L652.38 249c-1.72 1.29-3 2.26-3.68 2.89a11.39 11.39 0 00-2.07 2.44 5.65 5.65 0 00-1 3.14 5.39 5.39 0 002.07 4.41 7.7 7.7 0 005 1.67q4.43-.02 8.21-4.46zm-10.27-23.37a4.76 4.76 0 00-1.09 3.24 6.75 6.75 0 00.82 3.27 25.36 25.36 0 002.56 3.66q5.19-3.84 5.19-7.28a3.92 3.92 0 00-4.29-4.13 4 4 0 00-3.15 1.24z"/><path class="b" d="M708.08 244.74l-1.64 1.6a8.22 8.22 0 00-6.28-3.09 5.94 5.94 0 00-3.49 1 3.23 3.23 0 00-1.4 2.82 3 3 0 001.05 2.41 15.07 15.07 0 003.49 1.92l2.24 1a15.53 15.53 0 014.66 2.9 5.42 5.42 0 011.57 4 5.78 5.78 0 01-2.34 4.93 9.21 9.21 0 01-5.68 1.75 10.76 10.76 0 01-9.22-5l1.74-1.65q3.35 4.29 7.53 4.29a6.44 6.44 0 003.83-1.1 3.62 3.62 0 001.55-3.14 4 4 0 00-.33-1.67 3.25 3.25 0 00-1.19-1.32c-.58-.4-1.07-.7-1.47-.92s-1.05-.52-1.94-.92l-2.2-.95a15.75 15.75 0 01-4.41-2.66 4.93 4.93 0 01-1.52-3.77 5.46 5.46 0 012.24-4.58 8.77 8.77 0 015.44-1.69 9.39 9.39 0 017.77 3.84z"/><path class="b" d="M730.24 263.28v2.19a14.67 14.67 0 01-3.73.5 7.85 7.85 0 01-5.38-1.75q-2-1.74-2-5.48v-15H715v-2.3h4.18v-6.82h2.55v6.82h7.77v2.3h-7.77v14.95q0 5 5.22 5a16.82 16.82 0 003.29-.41z"/><path class="b" d="M750.32 241.4v2.2h-1.25a8.53 8.53 0 00-5.7 2.09 7 7 0 00-2.47 5.63v14.15h-2.49V241.4h2.39v4a8.88 8.88 0 018-4.19c.11.04.62.1 1.52.19z"/><path class="b" d="M772.12 243.35q2.46 2.44 2.46 7v15.1h-2.39v-3.74q-2.9 4.25-8.62 4.24a9.88 9.88 0 01-5.88-1.72 6 6 0 01-.1-9.49 9.8 9.8 0 016.08-1.75H772v-2.74a7.12 7.12 0 00-1.79-5.23 6.56 6.56 0 00-4.83-1.79q-4.2 0-7.33 4l-1.74-1.39a10.75 10.75 0 019.22-5 8.91 8.91 0 016.59 2.51zm-2.49 18.33a6.57 6.57 0 002.37-5.18v-1.34h-8.12a7.9 7.9 0 00-4.49 1.07 3.51 3.51 0 00-1.54 3.06 3.74 3.74 0 001.75 3.34 7.38 7.38 0 004.18 1.15 8.56 8.56 0 005.85-2.1z"/><path class="b" d="M797.64 263.28v2.19a14.67 14.67 0 01-3.73.5 7.85 7.85 0 01-5.38-1.75q-2-1.74-2-5.48v-15h-4.18v-2.3h4.18v-6.82h2.55v6.82h7.77v2.3h-7.77v14.95q0 5 5.23 5a16.81 16.81 0 003.33-.41z"/><path class="b" d="M826.19 254h-20.08a9.92 9.92 0 003 6.93 9.5 9.5 0 006.89 2.69 10.18 10.18 0 008-3.79l1.59 1.64a12.17 12.17 0 01-9.66 4.49 12.33 12.33 0 01-12.46-12.51 12.31 12.31 0 013.54-8.89 11.52 11.52 0 018.62-3.66 10.71 10.71 0 017.65 3 10.24 10.24 0 013.11 7.75 10.78 10.78 0 01-.2 2.35zm-16.89-8.39a9.9 9.9 0 00-3.09 6.15h17.59a7.81 7.81 0 00-2.29-6.23 8.32 8.32 0 00-6-2.34 8.82 8.82 0 00-6.21 2.43z"/><path class="b" d="M858.57 241.4v21.93a10.86 10.86 0 01-11.51 11.61 15.09 15.09 0 01-6.28-1.3 14 14 0 01-4.78-3.39l1.54-1.69a13 13 0 009.47 4 9.09 9.09 0 006.58-2.39 8.94 8.94 0 002.49-6.77v-3.14a9.83 9.83 0 01-4 3.71 12.3 12.3 0 01-5.73 1.37 11.31 11.31 0 01-8.49-3.54 12.76 12.76 0 010-17.41 11.34 11.34 0 018.47-3.56 12.16 12.16 0 015.83 1.44 9.73 9.73 0 014 3.89v-4.76zm-5.26 19.09q2.78-2.55 2.77-7.38t-2.79-7.34a9.56 9.56 0 00-6.63-2.52 9.21 9.21 0 00-6.92 2.84 10.47 10.47 0 000 14.12 9.23 9.23 0 006.92 2.82 9.49 9.49 0 006.65-2.54z"/><path class="b" d="M890 241.4l-12 28q-2.38 5.53-7.52 5.54a12.77 12.77 0 01-3.39-.45v-2.19a14.41 14.41 0 003 .35c2.52 0 4.38-1.39 5.58-4.14l1.54-3.54-10.28-23.57h2.74l8.92 20.68 8.72-20.68z"/><g><path class="b" d="M383.61 105.67l-12.87 14.67q-10.85-11.28-26-11.29t-15.13 10.61a9 9 0 003.27 7.12q3.29 2.82 11.4 6l10.62 4.29q15.8 6.54 23 14.11t7.23 19.3q0 16-11.74 24.95t-29.35 8.92q-28.23 0-44.7-21.45l13.6-14.9q15.13 15.81 31.16 15.81 7.68 0 12.75-3.17a10.22 10.22 0 005.08-9.25 9 9 0 00-3.72-7.68 62.12 62.12 0 00-11.85-6.1l-11.29-4.74q-14.69-6.09-21.79-13.32t-7.11-19q0-14.91 11.06-23.48t28-8.58q23.93.02 38.38 17.18z"/><path class="b" d="M507.67 105.1q15.46 16.61 15.46 41.43t-15.35 41.32q-15.36 16.49-38.78 16.48a53 53 0 01-22.47-4.74 40.38 40.38 0 01-16.37-13.32v15.58H408V32.52h23.7v72q13.1-16 37-16 23.5-.01 38.97 16.58zM489 172.5q9.7-10.17 9.71-26.19 0-15.81-9.71-26a32.07 32.07 0 00-24.16-10.16 33 33 0 00-23.59 9.37q-9.82 9.38-9.82 27 0 17.83 9.82 27a33.39 33.39 0 0023.59 9.15A32.07 32.07 0 00489 172.5z"/><path class="b" d="M569.63 201.85h-23.7V32.52h23.7z"/><path class="b" d="M694.93 155.34q0 22.13-13.65 35.56t-34.44 13.43q-21 0-34.77-13.43t-13.77-35.56V91h23.48v66.15q0 11.52 7.12 18.4t17.94 6.89a23.82 23.82 0 0017.39-6.89q7-6.89 7-18.4V91h23.7z"/><path class="b" d="M879.05 100.59q11 12.07 11 31.94v69.32h-23.98v-65.93q0-11.74-6.21-18.74t-16.82-7q-10.85 0-17.61 7t-6.78 17.61v67.06H795v-65.93q0-11.52-6.33-18.63t-16.93-7.11q-10.83 0-17.61 7.11t-6.77 18.63v65.93H723.6V91h22.13v10.6q12-13.09 32.06-13.09 23 0 33.64 17.38Q825 88.51 848.91 88.51q19.19 0 30.14 12.08z"/></g></svg>