<svg data-name="Ebene 1" xmlns="http://www.w3.org/2000/svg" xmlns:xlink="http://www.w3.org/1999/xlink" viewBox="0 0 233 27" width="233" height="27"><defs><style>.f79bbd18-eea3-4ad3-a74a-6b8587751571{fill:none;}.a1dee578-8dee-4ff5-816e-75b54f224073{clip-path:url(#e0500ea3-bf04-4037-9657-cb49a6c98630);}.a94a2171-d8f9-4d2e-9552-3ab28bd4d18c{fill:#1d1d1b;}</style><clipPath id="e0500ea3-bf04-4037-9657-cb49a6c98630"><polygon class="f79bbd18-eea3-4ad3-a74a-6b8587751571" points="2 25.22 212.95 25.22 212.95 1 2 1 2 25.22 2 25.22"/></clipPath></defs><title>sz-icon</title><g class="a1dee578-8dee-4ff5-816e-75b54f224073"><path class="a94a2171-d8f9-4d2e-9552-3ab28bd4d18c" d="M66.23,10.43a3.11,3.11,0,0,0-2-1.88,2.57,2.57,0,0,0-2.37.65c-1.56,1.51-1.54,3.73-.93,5.65l5.25-4.42Zm1.91-.07-6.66,5.75c.57,1.52,2.93,3,5.28.3l.89,1a6.24,6.24,0,0,1-6,1.71,5.72,5.72,0,0,1-4-4,5.7,5.7,0,0,1,1.73-6.13c1.58-1.36,5.59-3,8.75,1.42m63.54.07a3.11,3.11,0,0,0-2-1.88,2.57,2.57,0,0,0-2.37.65c-1.56,1.51-1.54,3.73-.93,5.65l5.25-4.42Zm1.92-.07-6.67,5.75c.57,1.52,2.94,3,5.28.3l.89,1a6.24,6.24,0,0,1-6,1.71,5.72,5.72,0,0,1-4-4,5.72,5.72,0,0,1,1.72-6.13c1.59-1.36,5.6-3,8.77,1.42m23.51.07a3.14,3.14,0,0,0-2-1.88,2.56,2.56,0,0,0-2.37.65c-1.56,1.51-1.55,3.73-.93,5.65l5.25-4.42Zm1.91-.07-6.66,5.75c.57,1.52,2.93,3,5.28.3l.89,1a6.24,6.24,0,0,1-6,1.71,5.72,5.72,0,0,1-4-4,5.72,5.72,0,0,1,1.72-6.13c1.59-1.36,5.59-3,8.76,1.42M98.5,8.74l-.88,1.17C96.21,8.81,93.88,8,92.21,8.76c-1.26.63-1,2.05.78,2.54,1.18.38,5,.7,5.44,3.59a3.26,3.26,0,0,1-1.35,3c-2.18,1.67-5.63,1.27-8,.45,0,0,.56-1.9.56-1.9a9.58,9.58,0,0,0,2.14,1c3.7,1.33,5.82-.92,3.52-2.25-1-.6-2.34-.66-3.64-1.18a3.69,3.69,0,0,1-2.27-2.2A3.24,3.24,0,0,1,90,8.71c2.18-2.08,6.14-1.28,8.55,0M20.07,5.19a1.49,1.49,0,1,1,1.49,1.49,1.5,1.5,0,0,1-1.49-1.49M141.5,17.75a28.7,28.7,0,0,0,7-.85c-.08.17-.74,1.7-.74,1.7H137.31l7.25-16.44-2.25,0c-2.87,0-3.83.37-6.4,1.95l.17-3h12.53L141.5,17.75ZM113.92,5.47v4.58c1.7-1.53,4.12-3.15,6.39-2,1.5.93,1.29,2.65,1.26,4.45-.06,2.91-.23,6.09-.23,6.09h-2.87a57.33,57.33,0,0,0-.1-7.7,1.69,1.69,0,0,0-.85-1.4c-1.36-.55-2.67.73-3.6,1.74V18.6h-3.23V6.32h-1.18V5.47Zm55.89,2.94L170,18.6h-3.22l.14-10.19h-2V7.56h2V7.1s.77-.28,1.45-.6a10.5,10.5,0,0,0,1.46-.81V7.56h6.42s-.72,7.13.11,9.2a1,1,0,0,0,1.25.61,8.14,8.14,0,0,0,3.06-1.8V8.41H179V7.56h4.93v11h-3.23V16.9c-.55.29-5,3.25-6.77,1.47-1-1.13-1-3.19-1.1-5a46.73,46.73,0,0,1,.42-4.95ZM22.57,7.56s-.73,7.13.1,9.2a1,1,0,0,0,1.26.61A8.1,8.1,0,0,0,27,15.57V8.41h-1.7V7.56h4.93v11H27V16.9c-.55.29-5,3.25-6.76,1.47-1-1.13-1-3.2-1.11-5a46.73,46.73,0,0,1,.42-4.95H17.89V7.56Zm50.4,0s-.72,7.13.11,9.2a1,1,0,0,0,1.25.61,8.14,8.14,0,0,0,3.06-1.8V8.41h-1.7V7.56h4.93v11H77.39V16.9c-.55.29-5,3.25-6.77,1.47-1-1.13-1.05-3.2-1.1-5a46.73,46.73,0,0,1,.42-4.95H68.3V7.56ZM26.85,5.19a1.49,1.49,0,1,1,1.49,1.49,1.5,1.5,0,0,1-1.49-1.49m137,2.37v11H160.6V8.41H159V7.56ZM160.7,5.19a1.49,1.49,0,1,0,1.49-1.5,1.49,1.49,0,0,0-1.49,1.5m-73.85.5a10,10,0,0,1-1.45.81c-.68.32-1.45.6-1.45.6v.46H81.68v.85H84l-.14,10.2H87l-.18-10.2h2.27V7.56H86.85V5.69ZM109,9a5.91,5.91,0,0,0-5.3-1.13A5.76,5.76,0,0,0,99.78,12a5.89,5.89,0,0,0,7.92,6.78,5.11,5.11,0,0,0,1.34-.69L108,16.91a3.76,3.76,0,0,1-2.61,1C104,17.7,103.2,16.22,103,15c-.37-2.2-.37-5,1.67-6.16a3.16,3.16,0,0,1,3.72,1.11L109,9ZM40.13,13.22s.19-4.12-2.37-4.12-2.61,4.1-2.61,4.1-.08,4.37,2.37,4.37,2.61-4.35,2.61-4.35M43,5.47V18.6H40V17.35a4.83,4.83,0,0,1-5,1.19,5.27,5.27,0,0,1-3-4.67,5.44,5.44,0,0,1,2.55-5.41A4.43,4.43,0,0,1,40,9.22V6.32H38.9V5.47Zm9.82,7.75S53,9.1,50.42,9.1s-2.6,4.1-2.6,4.1-.09,4.38,2.37,4.38,2.6-4.36,2.6-4.36m2.84-7.75V18.6h-3V17.36a4.84,4.84,0,0,1-5,1.19,5.28,5.28,0,0,1-3-4.68,5.41,5.41,0,0,1,2.55-5.41,4.42,4.42,0,0,1,5.43.77V6.32H51.56V5.47Zm142.11,6.87c0-4.16-1.7-4.64-2.3-4.76-2.1-.43-4.09,1.14-5.59,2.55V7.56h-4.36v.85h1.24V18.6h3.12V11.41c1-1.05,2.22-2.09,3.58-1.8,2.16.46,1.32,6.43,1.12,9h3.15c.08-2.42.05-4.3,0-6.26M17,3.51C14.18,1.35,10.16.22,6.59,1.62,5,2.2,3.19,3.79,3,5.57a4.75,4.75,0,0,0,2.27,4.48c2.8,1.95,6.74,1.49,9,4.21,1.37,1.83-.26,4.73-5.23,2.85a16.17,16.17,0,0,1-4.48-2.65L2,17.12l.52.45L3.7,16.38C6,18.24,15.37,21.54,17,14.72a3.91,3.91,0,0,0-1-3.65c-2.1-2-7.18-3.51-7.18-3.51S5,6.58,5,4.67c0-1.07,1.19-1.82,2-2.1,3.29-.93,6.58.78,9.07,2.68l2.58-2.2-.51-.48L17,3.51ZM205.27,18.33c1.68,0,3-2.15,3-4.81s-1.36-4.8-3-4.8-3,2.15-3,4.8,1.36,4.81,3,4.81m7.68-9a1.5,1.5,0,0,1-1.43,1.49,2.13,2.13,0,0,1-.77-.09,6.68,6.68,0,0,1,0,5.5,6.27,6.27,0,0,1-5.1,3.18c-2.76.22-2.22,1.36-1.46,1.45,1.37.19,3.69-.61,4.72,1.09a1.82,1.82,0,0,1-.13,1.72c-1.38,1.92-4.34,1.7-5.61,1.22a7.35,7.35,0,0,1-2.08-1.3l1.12-.87a4.13,4.13,0,0,0,4,1.3,1.23,1.23,0,0,0,.79-.77.94.94,0,0,0-.51-1.05c-1.53-.53-4.65.5-4.62-1.46a1.69,1.69,0,0,1,1.36-1.51,6.2,6.2,0,0,1-4.07-4.82,5.85,5.85,0,0,1,3.14-6.11,6.71,6.71,0,0,1,7,.73,4.5,4.5,0,0,1,.62.61,2,2,0,0,1,.15-.89,1.47,1.47,0,0,1,1.36-.9A1.49,1.49,0,0,1,213,9.33"/></g></svg>